<mxfile host="Electron" agent="Mozilla/5.0 (Windows NT 10.0; Win64; x64) AppleWebKit/537.36 (KHTML, like Gecko) draw.io/25.0.2 Chrome/128.0.6613.186 Electron/32.2.5 Safari/537.36" version="25.0.2">
  <diagram name="Page-1" id="rEm4B-3O66ELs0HvD85p">
    <mxGraphModel dx="1434" dy="956" grid="1" gridSize="10" guides="1" tooltips="1" connect="1" arrows="1" fold="1" page="1" pageScale="1" pageWidth="850" pageHeight="1100" math="0" shadow="0">
      <root>
        <mxCell id="0" />
        <mxCell id="1" parent="0" />
        <mxCell id="dUcWWosSyxVgg4xyaONq-1" value="" style="rounded=1;whiteSpace=wrap;html=1;dashed=1;" parent="1" vertex="1">
          <mxGeometry x="850" y="416.25" width="345" height="77.5" as="geometry" />
        </mxCell>
        <mxCell id="6D2U9YFyXp4mEBoXONha-56" value="" style="rounded=1;whiteSpace=wrap;html=1;dashed=1;" parent="1" vertex="1">
          <mxGeometry x="848.75" y="525" width="345" height="77.5" as="geometry" />
        </mxCell>
        <mxCell id="6D2U9YFyXp4mEBoXONha-5" value="" style="group" parent="1" vertex="1" connectable="0">
          <mxGeometry x="600" y="230" width="60" height="60" as="geometry" />
        </mxCell>
        <mxCell id="6D2U9YFyXp4mEBoXONha-6" value="" style="ellipse;html=1;shape=startState;fillColor=#000000;strokeColor=#ff0000;" parent="6D2U9YFyXp4mEBoXONha-5" vertex="1">
          <mxGeometry x="15" y="30" width="30" height="30" as="geometry" />
        </mxCell>
        <mxCell id="6D2U9YFyXp4mEBoXONha-7" value="&lt;b&gt;Start (uninitialized)&lt;/b&gt;" style="text;html=1;align=center;verticalAlign=middle;whiteSpace=wrap;rounded=0;" parent="6D2U9YFyXp4mEBoXONha-5" vertex="1">
          <mxGeometry width="60" height="30" as="geometry" />
        </mxCell>
        <mxCell id="6D2U9YFyXp4mEBoXONha-24" style="edgeStyle=orthogonalEdgeStyle;rounded=0;orthogonalLoop=1;jettySize=auto;html=1;exitX=0.5;exitY=1;exitDx=0;exitDy=0;entryX=0.5;entryY=0;entryDx=0;entryDy=0;" parent="1" source="6D2U9YFyXp4mEBoXONha-8" target="6D2U9YFyXp4mEBoXONha-9" edge="1">
          <mxGeometry relative="1" as="geometry" />
        </mxCell>
        <mxCell id="6D2U9YFyXp4mEBoXONha-8" value="&lt;p style=&quot;margin:0px;margin-top:4px;text-align:center;&quot;&gt;&lt;font style=&quot;font-size: 10px;&quot;&gt;&lt;b style=&quot;&quot;&gt;CAN_FSM_STATE_NO_COMMUNICATION&lt;/b&gt;&lt;br&gt;&lt;/font&gt;&lt;/p&gt;&lt;hr size=&quot;1&quot; style=&quot;border-style:solid;&quot;&gt;&lt;div style=&quot;text-align: center; height: 2px;&quot;&gt;&lt;font style=&quot;font-size: 10px;&quot;&gt;No relevant CAN communication has ever occurred.&lt;/font&gt;&lt;/div&gt;" style="verticalAlign=top;align=left;overflow=fill;html=1;whiteSpace=wrap;rounded=1;" parent="1" vertex="1">
          <mxGeometry x="470" y="340" width="320" height="50" as="geometry" />
        </mxCell>
        <mxCell id="6D2U9YFyXp4mEBoXONha-25" style="edgeStyle=orthogonalEdgeStyle;rounded=0;orthogonalLoop=1;jettySize=auto;html=1;exitX=0.5;exitY=1;exitDx=0;exitDy=0;entryX=0.5;entryY=0;entryDx=0;entryDy=0;" parent="1" source="6D2U9YFyXp4mEBoXONha-9" target="6D2U9YFyXp4mEBoXONha-10" edge="1">
          <mxGeometry relative="1" as="geometry" />
        </mxCell>
        <mxCell id="6D2U9YFyXp4mEBoXONha-9" value="&lt;p style=&quot;margin:0px;margin-top:4px;text-align:center;&quot;&gt;&lt;font style=&quot;&quot;&gt;&lt;span style=&quot;font-size: 10px;&quot;&gt;&lt;b&gt;CAN_FSM_STATE_WAIT_FOR_INFO&lt;/b&gt;&lt;/span&gt;&lt;br&gt;&lt;/font&gt;&lt;/p&gt;&lt;hr size=&quot;1&quot; style=&quot;border-style:solid;&quot;&gt;&lt;div style=&quot;text-align: center; height: 2px;&quot;&gt;&lt;font style=&quot;font-size: 10px;&quot;&gt;Start waiting for the program information.&lt;/font&gt;&lt;/div&gt;" style="verticalAlign=top;align=left;overflow=fill;html=1;whiteSpace=wrap;rounded=1;" parent="1" vertex="1">
          <mxGeometry x="470" y="410" width="320" height="50" as="geometry" />
        </mxCell>
        <mxCell id="6D2U9YFyXp4mEBoXONha-28" style="edgeStyle=orthogonalEdgeStyle;rounded=0;orthogonalLoop=1;jettySize=auto;html=1;exitX=0;exitY=0.5;exitDx=0;exitDy=0;entryX=0.5;entryY=0;entryDx=0;entryDy=0;" parent="1" source="6D2U9YFyXp4mEBoXONha-10" target="6D2U9YFyXp4mEBoXONha-11" edge="1">
          <mxGeometry relative="1" as="geometry" />
        </mxCell>
        <mxCell id="6D2U9YFyXp4mEBoXONha-10" value="&lt;p style=&quot;margin:0px;margin-top:4px;text-align:center;&quot;&gt;&lt;font style=&quot;&quot;&gt;&lt;span style=&quot;font-size: 10px;&quot;&gt;&lt;b&gt;CAN_FSM_STATE_WAIT_FOR_DATA_LOOPS&lt;/b&gt;&lt;/span&gt;&lt;br&gt;&lt;/font&gt;&lt;/p&gt;&lt;hr size=&quot;1&quot; style=&quot;border-style:solid;&quot;&gt;&lt;div style=&quot;text-align: center; height: 2px;&quot;&gt;&lt;span style=&quot;font-size: 10px;&quot;&gt;Start waiting for program data in loops.&lt;/span&gt;&lt;/div&gt;" style="verticalAlign=top;align=left;overflow=fill;html=1;whiteSpace=wrap;rounded=1;" parent="1" vertex="1">
          <mxGeometry x="470" y="480" width="320" height="50" as="geometry" />
        </mxCell>
        <mxCell id="6D2U9YFyXp4mEBoXONha-29" style="edgeStyle=orthogonalEdgeStyle;rounded=0;orthogonalLoop=1;jettySize=auto;html=1;exitX=0.5;exitY=1;exitDx=0;exitDy=0;entryX=0.5;entryY=0;entryDx=0;entryDy=0;" parent="1" source="6D2U9YFyXp4mEBoXONha-11" target="6D2U9YFyXp4mEBoXONha-12" edge="1">
          <mxGeometry relative="1" as="geometry" />
        </mxCell>
        <mxCell id="6D2U9YFyXp4mEBoXONha-11" value="&lt;p style=&quot;margin:0px;margin-top:4px;text-align:center;&quot;&gt;&lt;font style=&quot;&quot;&gt;&lt;span style=&quot;font-size: 10px;&quot;&gt;&lt;b&gt;CAN_FSM_STATE_RECEIVED_LOOP_NUMBER&lt;/b&gt;&lt;/span&gt;&lt;br&gt;&lt;/font&gt;&lt;/p&gt;&lt;hr size=&quot;1&quot; style=&quot;border-style:solid;&quot;&gt;&lt;div style=&quot;text-align: center; height: 2px;&quot;&gt;&lt;font style=&quot;font-size: 10px;&quot;&gt;Received the loop number in one data transfer loop.&lt;/font&gt;&lt;/div&gt;" style="verticalAlign=top;align=left;overflow=fill;html=1;whiteSpace=wrap;rounded=1;" parent="1" vertex="1">
          <mxGeometry x="105" y="525" width="320" height="50" as="geometry" />
        </mxCell>
        <mxCell id="6D2U9YFyXp4mEBoXONha-32" style="edgeStyle=orthogonalEdgeStyle;rounded=0;orthogonalLoop=1;jettySize=auto;html=1;exitX=0.5;exitY=1;exitDx=0;exitDy=0;entryX=0.5;entryY=0;entryDx=0;entryDy=0;" parent="1" source="6D2U9YFyXp4mEBoXONha-12" target="6D2U9YFyXp4mEBoXONha-13" edge="1">
          <mxGeometry relative="1" as="geometry">
            <Array as="points">
              <mxPoint x="265" y="680" />
              <mxPoint x="448" y="680" />
              <mxPoint x="448" y="580" />
              <mxPoint x="631" y="580" />
            </Array>
          </mxGeometry>
        </mxCell>
        <mxCell id="6D2U9YFyXp4mEBoXONha-62" style="edgeStyle=orthogonalEdgeStyle;rounded=0;orthogonalLoop=1;jettySize=auto;html=1;exitX=0.5;exitY=1;exitDx=0;exitDy=0;entryX=0;entryY=0.5;entryDx=0;entryDy=0;" parent="1" source="6D2U9YFyXp4mEBoXONha-12" target="6D2U9YFyXp4mEBoXONha-11" edge="1">
          <mxGeometry relative="1" as="geometry">
            <Array as="points">
              <mxPoint x="265" y="680" />
              <mxPoint x="85" y="680" />
              <mxPoint x="85" y="550" />
            </Array>
          </mxGeometry>
        </mxCell>
        <mxCell id="6D2U9YFyXp4mEBoXONha-12" value="&lt;p style=&quot;margin:0px;margin-top:4px;text-align:center;&quot;&gt;&lt;font style=&quot;&quot;&gt;&lt;span style=&quot;font-size: 10px;&quot;&gt;&lt;b&gt;CAN_FSM_STATE_RECEIVED_8_BYTES_DATA&lt;/b&gt;&lt;/span&gt;&lt;br&gt;&lt;/font&gt;&lt;/p&gt;&lt;hr size=&quot;1&quot; style=&quot;border-style:solid;&quot;&gt;&lt;div style=&quot;text-align: center; height: 2px;&quot;&gt;&lt;font style=&quot;font-size: 10px;&quot;&gt;Received the 8-byte program data in one data transfer loop.&lt;/font&gt;&lt;/div&gt;" style="verticalAlign=top;align=left;overflow=fill;html=1;whiteSpace=wrap;rounded=1;" parent="1" vertex="1">
          <mxGeometry x="105" y="600" width="320" height="50" as="geometry" />
        </mxCell>
        <mxCell id="6D2U9YFyXp4mEBoXONha-36" style="edgeStyle=orthogonalEdgeStyle;rounded=0;orthogonalLoop=1;jettySize=auto;html=1;exitX=0.5;exitY=1;exitDx=0;exitDy=0;" parent="1" source="6D2U9YFyXp4mEBoXONha-13" target="6D2U9YFyXp4mEBoXONha-14" edge="1">
          <mxGeometry relative="1" as="geometry" />
        </mxCell>
        <mxCell id="6D2U9YFyXp4mEBoXONha-60" style="edgeStyle=orthogonalEdgeStyle;rounded=0;orthogonalLoop=1;jettySize=auto;html=1;exitX=0.75;exitY=1;exitDx=0;exitDy=0;entryX=1;entryY=0.5;entryDx=0;entryDy=0;" parent="1" source="6D2U9YFyXp4mEBoXONha-13" target="6D2U9YFyXp4mEBoXONha-10" edge="1">
          <mxGeometry relative="1" as="geometry">
            <Array as="points">
              <mxPoint x="711" y="670" />
              <mxPoint x="820" y="670" />
              <mxPoint x="820" y="505" />
            </Array>
          </mxGeometry>
        </mxCell>
        <mxCell id="6D2U9YFyXp4mEBoXONha-13" value="&lt;p style=&quot;margin:0px;margin-top:4px;text-align:center;&quot;&gt;&lt;font style=&quot;&quot;&gt;&lt;span style=&quot;font-size: 10px;&quot;&gt;&lt;b&gt;CAN_FSM_STATE_RECEIVED_8_BYTES_CRC&lt;/b&gt;&lt;/span&gt;&lt;br&gt;&lt;/font&gt;&lt;/p&gt;&lt;hr size=&quot;1&quot; style=&quot;border-style:solid;&quot;&gt;&lt;div style=&quot;text-align: center; height: 2px;&quot;&gt;&lt;font style=&quot;font-size: 10px;&quot;&gt;Received the 8-byte CRC signature in one data transfer loop.&lt;/font&gt;&lt;/div&gt;" style="verticalAlign=top;align=left;overflow=fill;html=1;whiteSpace=wrap;rounded=1;" parent="1" vertex="1">
          <mxGeometry x="471.25" y="600" width="320" height="50" as="geometry" />
        </mxCell>
        <mxCell id="6D2U9YFyXp4mEBoXONha-35" style="edgeStyle=orthogonalEdgeStyle;rounded=0;orthogonalLoop=1;jettySize=auto;html=1;exitX=0.5;exitY=1;exitDx=0;exitDy=0;entryX=0.5;entryY=0;entryDx=0;entryDy=0;" parent="1" source="6D2U9YFyXp4mEBoXONha-14" target="6D2U9YFyXp4mEBoXONha-15" edge="1">
          <mxGeometry relative="1" as="geometry" />
        </mxCell>
        <mxCell id="6D2U9YFyXp4mEBoXONha-14" value="&lt;p style=&quot;margin:0px;margin-top:4px;text-align:center;&quot;&gt;&lt;font style=&quot;&quot;&gt;&lt;span style=&quot;font-size: 10px;&quot;&gt;&lt;b&gt;CAN_FSM_STATE_FINISHED_FINAL_VALIDATION&lt;/b&gt;&lt;/span&gt;&lt;br&gt;&lt;/font&gt;&lt;/p&gt;&lt;hr size=&quot;1&quot; style=&quot;border-style:solid;&quot;&gt;&lt;div style=&quot;text-align: center; height: 2px;&quot;&gt;&lt;span style=&quot;font-size: 10px;&quot;&gt;Validated the received program data.&lt;/span&gt;&lt;/div&gt;" style="verticalAlign=top;align=left;overflow=fill;html=1;whiteSpace=wrap;rounded=1;" parent="1" vertex="1">
          <mxGeometry x="471.25" y="680" width="321.25" height="50" as="geometry" />
        </mxCell>
        <mxCell id="6D2U9YFyXp4mEBoXONha-37" style="edgeStyle=orthogonalEdgeStyle;rounded=0;orthogonalLoop=1;jettySize=auto;html=1;exitX=0.5;exitY=1;exitDx=0;exitDy=0;" parent="1" source="6D2U9YFyXp4mEBoXONha-15" target="6D2U9YFyXp4mEBoXONha-16" edge="1">
          <mxGeometry relative="1" as="geometry" />
        </mxCell>
        <mxCell id="6D2U9YFyXp4mEBoXONha-15" value="&lt;p style=&quot;margin:0px;margin-top:4px;text-align:center;&quot;&gt;&lt;font style=&quot;&quot;&gt;&lt;span style=&quot;font-size: 10px;&quot;&gt;&lt;b&gt;CAN_FSM_STATE_FINISHED_TRANSFER_VECTOR_TABLE&lt;/b&gt;&lt;/span&gt;&lt;br&gt;&lt;/font&gt;&lt;/p&gt;&lt;hr size=&quot;1&quot; style=&quot;border-style:solid;&quot;&gt;&lt;div style=&quot;text-align: center; height: 2px;&quot;&gt;&lt;font style=&quot;font-size: 10px;&quot;&gt;Received the vector table.&lt;/font&gt;&lt;/div&gt;" style="verticalAlign=top;align=left;overflow=fill;html=1;whiteSpace=wrap;rounded=1;" parent="1" vertex="1">
          <mxGeometry x="470.63" y="760" width="322.5" height="50" as="geometry" />
        </mxCell>
        <mxCell id="6D2U9YFyXp4mEBoXONha-48" style="edgeStyle=orthogonalEdgeStyle;rounded=0;orthogonalLoop=1;jettySize=auto;html=1;exitX=1;exitY=0.5;exitDx=0;exitDy=0;" parent="1" source="6D2U9YFyXp4mEBoXONha-16" target="6D2U9YFyXp4mEBoXONha-47" edge="1">
          <mxGeometry relative="1" as="geometry" />
        </mxCell>
        <mxCell id="6D2U9YFyXp4mEBoXONha-16" value="&lt;p style=&quot;margin:0px;margin-top:4px;text-align:center;&quot;&gt;&lt;font style=&quot;&quot;&gt;&lt;span style=&quot;font-size: 10px;&quot;&gt;&lt;b&gt;CAN_FSM_STATE_VALIDATED_VECTOR_TABLE&lt;/b&gt;&lt;/span&gt;&lt;br&gt;&lt;/font&gt;&lt;/p&gt;&lt;hr size=&quot;1&quot; style=&quot;border-style:solid;&quot;&gt;&lt;div style=&quot;text-align: center; height: 2px;&quot;&gt;&lt;font style=&quot;font-size: 10px;&quot;&gt;Finished the validation of the received vector table.&lt;/font&gt;&lt;/div&gt;" style="verticalAlign=top;align=left;overflow=fill;html=1;whiteSpace=wrap;rounded=1;" parent="1" vertex="1">
          <mxGeometry x="470.63" y="840" width="322.5" height="50" as="geometry" />
        </mxCell>
        <mxCell id="6D2U9YFyXp4mEBoXONha-17" value="&lt;p style=&quot;margin:0px;margin-top:4px;text-align:center;&quot;&gt;&lt;font style=&quot;&quot;&gt;&lt;span style=&quot;font-size: 10px;&quot;&gt;&lt;b&gt;CAN_FSM_STATE_ERROR&lt;/b&gt;&lt;/span&gt;&lt;br&gt;&lt;/font&gt;&lt;/p&gt;&lt;hr size=&quot;1&quot; style=&quot;border-style:solid;&quot;&gt;&lt;div style=&quot;text-align: center; height: 2px;&quot;&gt;&lt;font style=&quot;font-size: 10px;&quot;&gt;An error occurred during CAN communication.&lt;/font&gt;&lt;/div&gt;" style="verticalAlign=top;align=left;overflow=fill;html=1;whiteSpace=wrap;rounded=1;fillColor=#f8cecc;strokeColor=#b85450;" parent="1" vertex="1">
          <mxGeometry x="860" y="538.75" width="322.5" height="50" as="geometry" />
        </mxCell>
        <mxCell id="6D2U9YFyXp4mEBoXONha-18" value="&lt;p style=&quot;margin:0px;margin-top:4px;text-align:center;&quot;&gt;&lt;font style=&quot;&quot;&gt;&lt;span style=&quot;font-size: 10px;&quot;&gt;&lt;b&gt;CAN_FSM_STATE_RUN_PROGRAM&lt;/b&gt;&lt;/span&gt;&lt;br&gt;&lt;/font&gt;&lt;/p&gt;&lt;hr size=&quot;1&quot; style=&quot;border-style:solid;&quot;&gt;&lt;div style=&quot;text-align: center; height: 2px;&quot;&gt;&lt;font style=&quot;font-size: 10px;&quot;&gt;Received a CAN message to start the flashed program.&lt;/font&gt;&lt;/div&gt;" style="verticalAlign=top;align=left;overflow=fill;html=1;whiteSpace=wrap;rounded=1;" parent="1" vertex="1">
          <mxGeometry x="860" y="340" width="322.5" height="50" as="geometry" />
        </mxCell>
        <mxCell id="6D2U9YFyXp4mEBoXONha-19" value="&lt;p style=&quot;margin:0px;margin-top:4px;text-align:center;&quot;&gt;&lt;font style=&quot;&quot;&gt;&lt;span style=&quot;font-size: 10px;&quot;&gt;&lt;b&gt;CAN_FSM_STATE_RESET_BOOT&lt;/b&gt;&lt;/span&gt;&lt;br&gt;&lt;/font&gt;&lt;/p&gt;&lt;hr size=&quot;1&quot; style=&quot;border-style:solid;&quot;&gt;&lt;div style=&quot;text-align: center; height: 2px;&quot;&gt;&lt;font style=&quot;font-size: 10px;&quot;&gt;Received a CAN message to reset the boot process.&lt;/font&gt;&lt;/div&gt;" style="verticalAlign=top;align=left;overflow=fill;html=1;whiteSpace=wrap;rounded=1;fillColor=#d5e8d4;strokeColor=#82b366;" parent="1" vertex="1">
          <mxGeometry x="860" y="430" width="322.5" height="50" as="geometry" />
        </mxCell>
        <mxCell id="6D2U9YFyXp4mEBoXONha-23" style="edgeStyle=orthogonalEdgeStyle;rounded=0;orthogonalLoop=1;jettySize=auto;html=1;exitX=0.5;exitY=1;exitDx=0;exitDy=0;entryX=0.5;entryY=0;entryDx=0;entryDy=0;" parent="1" source="6D2U9YFyXp4mEBoXONha-6" target="6D2U9YFyXp4mEBoXONha-8" edge="1">
          <mxGeometry relative="1" as="geometry" />
        </mxCell>
        <mxCell id="6D2U9YFyXp4mEBoXONha-44" style="edgeStyle=orthogonalEdgeStyle;rounded=0;orthogonalLoop=1;jettySize=auto;html=1;" parent="1" source="6D2U9YFyXp4mEBoXONha-6" target="6D2U9YFyXp4mEBoXONha-18" edge="1">
          <mxGeometry relative="1" as="geometry">
            <Array as="points">
              <mxPoint x="630" y="310" />
              <mxPoint x="1021" y="310" />
            </Array>
          </mxGeometry>
        </mxCell>
        <mxCell id="6D2U9YFyXp4mEBoXONha-47" value="" style="ellipse;html=1;shape=endState;fillColor=#000000;strokeColor=#ff0000;" parent="1" vertex="1">
          <mxGeometry x="880" y="850" width="30" height="30" as="geometry" />
        </mxCell>
        <mxCell id="6D2U9YFyXp4mEBoXONha-49" value="" style="group" parent="1" vertex="1" connectable="0">
          <mxGeometry x="865" y="880" width="60" height="60" as="geometry" />
        </mxCell>
        <mxCell id="6D2U9YFyXp4mEBoXONha-51" value="&lt;b&gt;End&lt;/b&gt;" style="text;html=1;align=center;verticalAlign=middle;whiteSpace=wrap;rounded=0;" parent="6D2U9YFyXp4mEBoXONha-49" vertex="1">
          <mxGeometry width="60" height="30" as="geometry" />
        </mxCell>
        <mxCell id="6D2U9YFyXp4mEBoXONha-57" value="&lt;font style=&quot;font-size: 10px;&quot;&gt;If the validation for the current sector data fails&lt;/font&gt;" style="text;html=1;align=center;verticalAlign=middle;whiteSpace=wrap;rounded=0;" parent="1" vertex="1">
          <mxGeometry x="820" y="640" width="80" height="30" as="geometry" />
        </mxCell>
        <mxCell id="6D2U9YFyXp4mEBoXONha-59" style="edgeStyle=orthogonalEdgeStyle;rounded=0;orthogonalLoop=1;jettySize=auto;html=1;exitX=0.75;exitY=1;exitDx=0;exitDy=0;entryX=1;entryY=0.5;entryDx=0;entryDy=0;" parent="1" source="6D2U9YFyXp4mEBoXONha-13" target="6D2U9YFyXp4mEBoXONha-13" edge="1">
          <mxGeometry relative="1" as="geometry">
            <Array as="points">
              <mxPoint x="711" y="670" />
              <mxPoint x="820" y="670" />
              <mxPoint x="820" y="625" />
            </Array>
          </mxGeometry>
        </mxCell>
      </root>
    </mxGraphModel>
  </diagram>
</mxfile>
